<svg width="13" height="13" viewBox="0 0 13 13" fill="none" xmlns="http://www.w3.org/2000/svg">
<path d="M6.1752 3.48535C7.89785 3.48535 9.31973 4.90723 9.31973 6.62988C9.31973 8.37988 7.89785 9.77441 6.1752 9.77441C4.4252 9.77441 3.03066 8.37988 3.03066 6.62988C3.03066 4.90723 4.4252 3.48535 6.1752 3.48535ZM6.1752 8.68066C7.29629 8.68066 8.19863 7.77832 8.19863 6.62988C8.19863 5.50879 7.29629 4.60645 6.1752 4.60645C5.02676 4.60645 4.12441 5.50879 4.12441 6.62988C4.12441 7.77832 5.0541 8.68066 6.1752 8.68066ZM10.1674 3.37598C10.1674 3.78613 9.83926 4.11426 9.4291 4.11426C9.01895 4.11426 8.69082 3.78613 8.69082 3.37598C8.69082 2.96582 9.01895 2.6377 9.4291 2.6377C9.83926 2.6377 10.1674 2.96582 10.1674 3.37598ZM12.2455 4.11426C12.3002 5.12598 12.3002 8.16113 12.2455 9.17285C12.1908 10.1572 11.9721 11.0049 11.2611 11.7432C10.5502 12.4541 9.6752 12.6729 8.69082 12.7275C7.6791 12.7822 4.64395 12.7822 3.63223 12.7275C2.64785 12.6729 1.8002 12.4541 1.06191 11.7432C0.350976 11.0049 0.132226 10.1572 0.077539 9.17285C0.0228515 8.16113 0.0228515 5.12598 0.077539 4.11426C0.132226 3.12988 0.350976 2.25488 1.06191 1.54395C1.8002 0.833008 2.64785 0.614258 3.63223 0.55957C4.64395 0.504883 7.6791 0.504883 8.69082 0.55957C9.6752 0.614258 10.5502 0.833008 11.2611 1.54395C11.9721 2.25488 12.1908 3.12988 12.2455 4.11426ZM10.933 10.2393C11.2611 9.44629 11.1791 7.53223 11.1791 6.62988C11.1791 5.75488 11.2611 3.84082 10.933 3.02051C10.7143 2.50098 10.3041 2.06348 9.78457 1.87207C8.96426 1.54395 7.0502 1.62598 6.1752 1.62598C5.27285 1.62598 3.35879 1.54395 2.56582 1.87207C2.01895 2.09082 1.60879 2.50098 1.39004 3.02051C1.06191 3.84082 1.14395 5.75488 1.14395 6.62988C1.14395 7.53223 1.06191 9.44629 1.39004 10.2393C1.60879 10.7861 2.01895 11.1963 2.56582 11.415C3.35879 11.7432 5.27285 11.6611 6.1752 11.6611C7.0502 11.6611 8.96426 11.7432 9.78457 11.415C10.3041 11.1963 10.7416 10.7861 10.933 10.2393Z" fill="white"/>
</svg>
